<svg width="50" height="35" viewBox="0 0 50 35" fill="none" xmlns="http://www.w3.org/2000/svg">
<path d="M1.15283 18.3001V7.99102H3.95275V9.78976H4.0612C4.25102 9.14991 4.56966 8.66665 5.01711 8.34004C5.46457 8.00894 5.97977 7.84339 6.56282 7.84339C6.70746 7.84339 6.86338 7.8523 7.0306 7.87022C7.19782 7.88809 7.34472 7.91275 7.47127 7.94406V10.481C7.3357 10.4408 7.14813 10.405 6.90859 10.3737C6.669 10.3424 6.44983 10.3267 6.25096 10.3267C5.82612 10.3267 5.44648 10.4184 5.11202 10.6018C4.78208 10.7808 4.51996 11.0314 4.3256 11.3536C4.13578 11.6757 4.04087 12.0471 4.04087 12.4677V18.3001H1.15283ZM8.96447 18.3001V7.99102H11.8525V18.3001H8.96447ZM10.4152 6.66215C9.98586 6.66215 9.61756 6.52117 9.31019 6.2393C9.0074 5.95295 8.85596 5.61062 8.85596 5.21243C8.85596 4.81866 9.0074 4.48083 9.31019 4.19895C9.61756 3.91257 9.98586 3.76941 10.4152 3.76941C10.8446 3.76941 11.2107 3.91257 11.5135 4.19895C11.8209 4.48083 11.9745 4.81866 11.9745 5.21243C11.9745 5.61062 11.8209 5.95295 11.5135 6.2393C11.2107 6.52117 10.8446 6.66215 10.4152 6.66215ZM22.8301 10.9307L20.1861 11.0918C20.1409 10.8681 20.0437 10.6667 19.8946 10.4877C19.7454 10.3043 19.5488 10.1589 19.3048 10.0515C19.0652 9.93965 18.7783 9.88373 18.4438 9.88373C17.9964 9.88373 17.6189 9.97765 17.3116 10.1656C17.0043 10.349 16.8507 10.5952 16.8507 10.9039C16.8507 11.15 16.95 11.358 17.1489 11.5281C17.3478 11.6981 17.689 11.8346 18.1726 11.9375L20.0573 12.3133C21.0697 12.5192 21.8245 12.8503 22.3216 13.3066C22.8188 13.763 23.0674 14.3626 23.0674 15.1054C23.0674 15.781 22.8663 16.3739 22.464 16.884C22.0663 17.3941 21.5194 17.7923 20.8234 18.0786C20.1319 18.3605 19.3342 18.5015 18.4302 18.5015C17.0517 18.5015 15.9535 18.2173 15.1354 17.6491C14.3219 17.0764 13.8451 16.2978 13.705 15.3135L16.5455 15.1658C16.6314 15.5819 16.8393 15.8996 17.1693 16.1188C17.4992 16.3336 17.9218 16.441 18.437 16.441C18.9432 16.441 19.35 16.3448 19.6573 16.1524C19.9692 15.9555 20.1273 15.7027 20.1319 15.394C20.1273 15.1345 20.0166 14.9219 19.7997 14.7564C19.5828 14.5863 19.2483 14.4566 18.7963 14.3671L16.993 14.0114C15.9761 13.81 15.2191 13.461 14.7219 12.9644C14.2292 12.4677 13.9829 11.8346 13.9829 11.065C13.9829 10.4027 14.1637 9.83224 14.5253 9.35351C14.8914 8.87473 15.4044 8.50558 16.0642 8.24606C16.7286 7.98654 17.506 7.85678 18.3964 7.85678C19.7116 7.85678 20.7465 8.13201 21.5013 8.68231C22.2606 9.23266 22.7035 9.98213 22.8301 10.9307ZM29.6316 18.5015C28.5604 18.5015 27.6384 18.2867 26.8655 17.8571C26.0972 17.4231 25.5051 16.8101 25.0894 16.0182C24.6735 15.2217 24.4656 14.2799 24.4656 13.1925C24.4656 12.1321 24.6735 11.2014 25.0894 10.4005C25.5051 9.59959 26.0904 8.9754 26.8452 8.52793C27.6045 8.08051 28.4949 7.85678 29.5163 7.85678C30.2033 7.85678 30.8428 7.96641 31.4349 8.18566C32.0315 8.40044 32.5512 8.72484 32.9943 9.15887C33.4415 9.5929 33.7897 10.1388 34.0382 10.7965C34.2867 11.4498 34.4109 12.2149 34.4109 13.0919V13.8771H25.6181V12.1053H31.6925C31.6925 11.6936 31.6021 11.329 31.4212 11.0113C31.2407 10.6936 30.9897 10.4453 30.6688 10.2663C30.3525 10.0828 29.9841 9.99109 29.5638 9.99109C29.1254 9.99109 28.7367 10.0918 28.3977 10.2931C28.0633 10.49 27.8011 10.7562 27.6113 11.0918C27.4215 11.4229 27.3243 11.7921 27.3198 12.1992V13.8838C27.3198 14.394 27.4147 14.8347 27.6045 15.2061C27.7988 15.5775 28.0723 15.8638 28.4248 16.0652C28.7774 16.2665 29.1954 16.3672 29.679 16.3672C29.9999 16.3672 30.2937 16.3224 30.5603 16.2329C30.827 16.1435 31.0552 16.0092 31.2452 15.8302C31.4349 15.6513 31.5794 15.432 31.6791 15.1725L34.35 15.347C34.2146 15.9824 33.9364 16.5372 33.5161 17.0115C33.1003 17.4813 32.5625 17.8482 31.9028 18.1122C31.2473 18.3717 30.4903 18.5015 29.6316 18.5015Z" fill="#F0E714"/>
<path fill-rule="evenodd" clip-rule="evenodd" d="M46.7024 4.02412C47.3436 4.02412 47.8634 3.50938 47.8634 2.8745C47.8634 2.23963 47.3436 1.72504 46.7024 1.72504C46.0612 1.72504 45.5412 2.23963 45.5412 2.8745C45.5412 3.27925 45.7528 3.63534 46.0721 3.84012C42.8255 9.6226 40.1221 10.0899 35.3921 4.21395C35.3497 4.16166 35.2731 4.14597 35.2155 4.18068C35.1773 4.20355 35.1552 4.24252 35.1521 4.28353C35.1494 4.31443 35.1573 4.34653 35.177 4.37362C40.1667 11.3124 40.3639 14.8779 39.407 20.9534C39.3967 21.0166 39.4461 21.0751 39.5106 21.0751C39.5603 21.0751 39.6034 21.0394 39.6139 20.9915C41.1812 13.9461 43.6176 12.1177 49.7039 11.3952C49.7573 11.3889 49.7988 11.3441 49.7988 11.2909C49.7988 11.2254 49.7355 11.1766 49.6703 11.1882C43.1994 12.34 43.0539 10.1279 46.2876 3.94852C46.4164 3.99729 46.5561 4.02412 46.7024 4.02412Z" fill="white"/>
<path d="M3.43493 31.9296C2.8461 31.9296 2.33904 31.7919 1.91376 31.5165C1.48849 31.2414 1.16136 30.8622 0.932362 30.3789C0.703367 29.8959 0.588867 29.344 0.588867 28.7233C0.588867 28.0917 0.706094 27.5344 0.940537 27.0514C1.17771 26.5655 1.50757 26.1863 1.93012 25.9138C2.3554 25.6385 2.85155 25.5008 3.41857 25.5008C3.86021 25.5008 4.25824 25.5818 4.61263 25.7437C4.96703 25.9056 5.25736 26.1324 5.48365 26.4238C5.70988 26.7153 5.85029 27.0554 5.90483 27.444H4.93975C4.86615 27.1606 4.7026 26.9096 4.44906 26.691C4.19827 26.4697 3.86021 26.359 3.43493 26.359C3.05875 26.359 2.72888 26.4562 2.44536 26.6505C2.16457 26.8422 1.94512 27.1134 1.787 27.4643C1.63161 27.8124 1.55392 28.2213 1.55392 28.6909C1.55392 29.1713 1.63025 29.5896 1.78291 29.9459C1.9383 30.3021 2.15639 30.5786 2.43718 30.7758C2.7207 30.9729 3.0533 31.0713 3.43493 31.0713C3.68575 31.0713 3.91339 31.0281 4.11785 30.9417C4.3223 30.8553 4.49542 30.7314 4.63718 30.5694C4.77893 30.4074 4.87978 30.2129 4.93975 29.9863H5.90483C5.85029 30.3534 5.71535 30.6839 5.49999 30.9783C5.28736 31.2696 5.00518 31.5018 4.65351 31.6746C4.30457 31.8444 3.89839 31.9296 3.43493 31.9296ZM7.31555 31.7999V25.5818H8.24792V26.521H8.31334C8.42782 26.2133 8.63504 25.9637 8.93488 25.7721C9.23478 25.5804 9.57282 25.4846 9.94901 25.4846C10.0199 25.4846 10.1085 25.486 10.2148 25.4887C10.3212 25.4914 10.4015 25.4954 10.4561 25.5008V26.4724C10.4233 26.4643 10.3484 26.4522 10.2312 26.436C10.1167 26.4171 9.99535 26.4076 9.86725 26.4076C9.56189 26.4076 9.28932 26.4711 9.04937 26.5979C8.81225 26.7221 8.62411 26.8948 8.48509 27.1161C8.3488 27.3347 8.28066 27.5844 8.28066 27.865V31.7999H7.31555ZM14.0423 31.9296C13.4371 31.9296 12.915 31.7973 12.4762 31.5326C12.04 31.2657 11.7033 30.8931 11.4661 30.4155C11.2317 29.935 11.1145 29.3764 11.1145 28.7394C11.1145 28.1025 11.2317 27.5412 11.4661 27.0554C11.7033 26.5669 12.0331 26.1863 12.4557 25.9138C12.881 25.6385 13.3771 25.5008 13.9442 25.5008C14.2713 25.5008 14.5943 25.5548 14.9133 25.6628C15.2323 25.7707 15.5226 25.9461 15.7843 26.1891C16.046 26.4292 16.2545 26.7477 16.4099 27.1444C16.5653 27.5412 16.643 28.0297 16.643 28.6099V29.0147H11.8014V28.1889H15.6616C15.6616 27.8381 15.5907 27.525 15.449 27.2497C15.3099 26.9744 15.1109 26.7571 14.8519 26.5979C14.5957 26.4386 14.2931 26.359 13.9442 26.359C13.5598 26.359 13.2272 26.4535 12.9464 26.6425C12.6683 26.8286 12.4543 27.0715 12.3044 27.3711C12.1545 27.6707 12.0795 27.9919 12.0795 28.3347V28.8852C12.0795 29.3548 12.1613 29.7529 12.3248 30.0795C12.4911 30.4032 12.7215 30.6504 13.0159 30.8201C13.3103 30.9875 13.6525 31.0713 14.0423 31.0713C14.2958 31.0713 14.5248 31.0362 14.7293 30.966C14.9364 30.8931 15.115 30.7851 15.265 30.6423C15.4149 30.4965 15.5308 30.3156 15.6126 30.0996L16.5449 30.3588C16.4467 30.6719 16.2818 30.9471 16.0501 31.1847C15.8183 31.4196 15.5321 31.6029 15.1914 31.7352C14.8506 31.8648 14.4676 31.9296 14.0423 31.9296ZM19.9594 31.9458C19.5613 31.9458 19.2001 31.8714 18.8757 31.7232C18.5513 31.572 18.2937 31.3548 18.1028 31.0713C17.912 30.7851 17.8166 30.4398 17.8166 30.0348C17.8166 29.6787 17.8875 29.3899 18.0293 29.1686C18.171 28.9446 18.3605 28.7691 18.5977 28.6423C18.8348 28.5154 19.0965 28.421 19.3828 28.3589C19.6717 28.2941 19.9621 28.2429 20.2538 28.205C20.6354 28.1565 20.9448 28.1201 21.182 28.0958C21.4219 28.0688 21.5964 28.0243 21.7054 27.9622C21.8172 27.9001 21.8731 27.7921 21.8731 27.6383V27.6059C21.8731 27.2065 21.7627 26.8962 21.5419 26.6748C21.3238 26.4535 20.9926 26.3429 20.5482 26.3429C20.0875 26.3429 19.7263 26.4427 19.4646 26.6425C19.2028 26.8422 19.0189 27.0554 18.9125 27.282L17.9965 26.9582C18.1601 26.5804 18.3782 26.2862 18.6508 26.0757C18.9262 25.8624 19.226 25.714 19.5504 25.6304C19.8776 25.544 20.1993 25.5008 20.5155 25.5008C20.7172 25.5008 20.949 25.5251 21.2107 25.5737C21.4751 25.6196 21.73 25.7154 21.9753 25.8611C22.2234 26.0068 22.4292 26.2268 22.5928 26.521C22.7564 26.8152 22.8381 27.2092 22.8381 27.7031V31.7999H21.8731V30.9579H21.824C21.7586 31.0929 21.6495 31.2372 21.4969 31.3911C21.3442 31.545 21.1411 31.6757 20.8876 31.7838C20.6341 31.8918 20.3247 31.9458 19.9594 31.9458ZM20.1066 31.0875C20.4882 31.0875 20.8099 31.0133 21.0716 30.8649C21.3361 30.7164 21.535 30.5247 21.6686 30.2901C21.8049 30.0552 21.8731 29.8082 21.8731 29.5492V28.6747C21.8322 28.7233 21.7423 28.7678 21.6032 28.8083C21.4669 28.8461 21.3088 28.8798 21.1288 28.9095C20.9517 28.9364 20.7785 28.9607 20.6095 28.9824C20.4432 29.0012 20.3083 29.0174 20.2047 29.0309C19.9539 29.0633 19.7195 29.1159 19.5014 29.1888C19.286 29.259 19.1115 29.3656 18.9779 29.5086C18.8471 29.6489 18.7817 29.8406 18.7817 30.0834C18.7817 30.4155 18.9057 30.6666 19.1538 30.8364C19.4046 31.0038 19.7222 31.0875 20.1066 31.0875ZM27.3311 25.5818V26.3914H24.0762V25.5818H27.3311ZM25.0248 24.092H25.9899V30.0186C25.9899 30.2886 26.0294 30.4911 26.1084 30.6261C26.1902 30.758 26.2939 30.8472 26.4193 30.8931C26.5474 30.9363 26.6824 30.9579 26.8241 30.9579C26.9304 30.9579 27.0176 30.9525 27.0858 30.9417C27.154 30.9282 27.2084 30.9174 27.2494 30.9093L27.4457 31.7676C27.3802 31.7919 27.2889 31.8162 27.1717 31.8405C27.0544 31.8675 26.9059 31.8809 26.726 31.8809C26.4533 31.8809 26.1862 31.8228 25.9245 31.707C25.6655 31.5909 25.4501 31.4142 25.2784 31.1766C25.1093 30.939 25.0248 30.6396 25.0248 30.2778V24.092ZM28.7828 31.7999V25.5818H29.7479V31.7999H28.7828ZM29.2735 24.5454C29.0854 24.5454 28.9232 24.482 28.7869 24.3552C28.6533 24.2283 28.5865 24.0758 28.5865 23.8977C28.5865 23.7196 28.6533 23.5671 28.7869 23.4402C28.9232 23.3134 29.0854 23.25 29.2735 23.25C29.4616 23.25 29.6225 23.3134 29.756 23.4402C29.8924 23.5671 29.9605 23.7196 29.9605 23.8977C29.9605 24.0758 29.8924 24.2283 29.756 24.3552C29.6225 24.482 29.4616 24.5454 29.2735 24.5454ZM36.6515 25.5818L34.3288 31.7999H33.3473L31.0246 25.5818H32.0715L33.8055 30.537H33.8707L35.6046 25.5818H36.6515ZM40.3336 31.9296C39.7285 31.9296 39.2064 31.7973 38.7676 31.5326C38.3312 31.2657 37.9946 30.8931 37.7576 30.4155C37.5231 29.935 37.4058 29.3764 37.4058 28.7394C37.4058 28.1025 37.5231 27.5412 37.7576 27.0554C37.9946 26.5669 38.3246 26.1863 38.747 25.9138C39.1725 25.6385 39.6685 25.5008 40.2355 25.5008C40.5628 25.5008 40.8858 25.5548 41.2046 25.6628C41.5236 25.7707 41.814 25.9461 42.0758 26.1891C42.3373 26.4292 42.5461 26.7477 42.7012 27.1444C42.8567 27.5412 42.9346 28.0297 42.9346 28.6099V29.0147H38.0928V28.1889H41.9531C41.9531 27.8381 41.8821 27.525 41.7403 27.2497C41.6012 26.9744 41.4025 26.7571 41.1433 26.5979C40.887 26.4386 40.5846 26.359 40.2355 26.359C39.8512 26.359 39.5185 26.4535 39.2379 26.6425C38.9597 26.8286 38.7458 27.0715 38.5958 27.3711C38.4458 27.6707 38.371 27.9919 38.371 28.3347V28.8852C38.371 29.3548 38.4528 29.7529 38.6164 30.0795C38.7825 30.4032 39.0131 30.6504 39.3073 30.8201C39.6018 30.9875 39.944 31.0713 40.3336 31.0713C40.5873 31.0713 40.8164 31.0362 41.0207 30.966C41.2279 30.8931 41.4064 30.7851 41.5564 30.6423C41.7064 30.4965 41.8222 30.3156 41.904 30.0996L42.8364 30.3588C42.7382 30.6719 42.5734 30.9471 42.3415 31.1847C42.1097 31.4196 41.8236 31.6029 41.4828 31.7352C41.1422 31.8648 40.7591 31.9296 40.3336 31.9296Z" fill="white"/>
</svg>
